<svg xmlns="http://www.w3.org/2000/svg" aria-hidden="true" style="width:0;height:0;position:absolute;overflow:hidden"><defs><symbol id="icon-film" viewBox="0 0 24 24"><path d="M16 11H8V3h8zm-8 2h8v8H8zM6 6H3V4.18c0-.326.131-.62.346-.834S3.854 3 4.18 3H6zM3 8h3v3H3zm3 8H3v-3h3zm-3 2h3v3H4.18c-.326 0-.62-.131-.834-.346S3 20.146 3 19.82zm18-2h-3v-3h3zm-3 2h3v1.82c0 .326-.131.62-.346.834s-.508.346-.834.346H18zm3-12h-3V3h1.82c.326 0 .62.131.834.346s.346.508.346.834zm2 1V4.18A3.176 3.176 0 0 0 19.82 1H4.18A3.176 3.176 0 0 0 1 4.18v15.64A3.176 3.176 0 0 0 4.18 23h15.64A3.176 3.176 0 0 0 23 19.82zm-5 1h3v3h-3z"/></symbol><symbol id="icon-search" viewBox="0 0 24 24"><path d="M16.041 15.856a.995.995 0 0 0-.186.186A6.97 6.97 0 0 1 11 18c-1.933 0-3.682-.782-4.95-2.05S4 12.933 4 11s.782-3.682 2.05-4.95S9.067 4 11 4s3.682.782 4.95 2.05S18 9.067 18 11a6.971 6.971 0 0 1-1.959 4.856zm5.666 4.437-3.675-3.675A8.967 8.967 0 0 0 20 11c0-2.485-1.008-4.736-2.636-6.364S13.485 2 11 2 6.264 3.008 4.636 4.636 2 8.515 2 11s1.008 4.736 2.636 6.364S8.515 20 11 20a8.967 8.967 0 0 0 5.618-1.968l3.675 3.675a.999.999 0 1 0 1.414-1.414z"/></symbol></defs></svg>