<svg xmlns="http://www.w3.org/2000/svg" aria-hidden="true" style="position:absolute;width:0;height:0;overflow:hidden"><defs><symbol id="icon-film" viewBox="0 0 24 24"><path d="M16 11H8V3h8zm-8 2h8v8H8zM6 6H3V4.18c0-.326.131-.62.346-.834S3.854 3 4.18 3H6zM3 8h3v3H3zm3 8H3v-3h3zm-3 2h3v3H4.18c-.326 0-.62-.131-.834-.346S3 20.146 3 19.82zm18-2h-3v-3h3zm-3 2h3v1.82c0 .326-.131.62-.346.834s-.508.346-.834.346H18zm3-12h-3V3h1.82c.326 0 .62.131.834.346s.346.508.346.834zm2 1V4.18A3.176 3.176 0 0 0 19.82 1H4.18A3.176 3.176 0 0 0 1 4.18v15.64A3.176 3.176 0 0 0 4.18 23h15.64A3.176 3.176 0 0 0 23 19.82zm-5 1h3v3h-3z"/></symbol><symbol id="icon-search" viewBox="0 0 24 24">
<path d="M16.041 15.856c-0.034 0.026-0.067 0.055-0.099 0.087s-0.060 0.064-0.087 0.099c-1.258 1.213-2.969 1.958-4.855 1.958-1.933 0-3.682-0.782-4.95-2.050s-2.050-3.017-2.050-4.95 0.782-3.682 2.050-4.95 3.017-2.050 4.95-2.050 3.682 0.782 4.95 2.050 2.050 3.017 2.050 4.95c0 1.886-0.745 3.597-1.959 4.856zM21.707 20.293l-3.675-3.675c1.231-1.54 1.968-3.493 1.968-5.618 0-2.485-1.008-4.736-2.636-6.364s-3.879-2.636-6.364-2.636-4.736 1.008-6.364 2.636-2.636 3.879-2.636 6.364 1.008 4.736 2.636 6.364 3.879 2.636 6.364 2.636c2.125 0 4.078-0.737 5.618-1.968l3.675 3.675c0.391 0.391 1.024 0.391 1.414 0s0.391-1.024 0-1.414z"></path>
</symbol></defs></svg>